<svg viewBox="0 0 100 100" data-name="Layer 1"  xmlns="http://www.w3.org/2000/svg"><title/><path d="M14.6,26.26c-.09,4.44-.19,9.48,2.77,15.9A17.36,17.36,0,0,0,33.26,52.75,1.79,1.79,0,0,0,35.11,51a1.82,1.82,0,0,0-1.79-1.85,13.66,13.66,0,0,1-12.64-8.47C18.07,35,18.15,30.58,18.24,26.33c.09-4.61.17-9-3.44-13.73C22.14,14,35.21,17.22,41.91,24a15.83,15.83,0,0,1,4.43,15.23,1.82,1.82,0,0,0,3.16,1.6,14,14,0,0,1,2.93-2.61c4.55-3.08,8.38-3.63,12.09-4.17,4-.57,7.74-1.12,11.28-4.67-.17,6.69-1.21,18.12-6,24.74a13.84,13.84,0,0,1-18.48,4.11,1.82,1.82,0,0,0-2,3.06,17.09,17.09,0,0,0,9,2.5A17.39,17.39,0,0,0,72.7,56.29c7.86-10.8,6.75-31.51,6.7-32.39A1.82,1.82,0,0,0,76,23.09c-3.58,6.16-7.12,6.67-12,7.38-3.92.57-8.35,1.21-13.57,4.73a19.84,19.84,0,0,0-5.92-13.73C34,10.81,10.84,8.26,9.86,8.15A1.85,1.85,0,0,0,8,9.26a1.82,1.82,0,0,0,.52,2.11C14.79,16.55,14.71,20.62,14.6,26.26Z"/><path d="M37.92,90a1.82,1.82,0,1,0,3.64,0V70a17.73,17.73,0,0,1,8.2-15.38,26.6,26.6,0,0,1,8.54-3.77,1.82,1.82,0,0,0-.71-3.57c-.15,0-10.39,2.2-16,10.43V56.36c0-13.35-10.12-23.61-10.55-24a1.82,1.82,0,0,0-2.57,2.57c.09.09,9.48,9.66,9.48,21.47Z"/><path d="M62.64,65.05a1.84,1.84,0,0,0-1.18,1.83,1.81,1.81,0,0,0,1.4,1.65c2.47.57,2.92,1.52,3.81,3.4a13.64,13.64,0,0,0,3.94,5.31,1.82,1.82,0,0,0,2.28-2.84,10.08,10.08,0,0,1-2.93-4,11,11,0,0,0-1.91-3.07c2.67-.58,5.89-.92,8.15-.15a4.91,4.91,0,0,1,3.37,5.55,1.83,1.83,0,0,0,.8,1.92,1.81,1.81,0,0,0,2.07-.08l.15-.12a7.51,7.51,0,0,1,3.52-1.2,10.82,10.82,0,0,0,2.23-.49A11.78,11.78,0,0,1,86.71,78a3.45,3.45,0,0,1-3.91,1.35,1.82,1.82,0,1,0-1.11,3.47,7.1,7.1,0,0,0,2.17.33,7,7,0,0,0,5.79-3c2.83-3.88,2.51-10.81,2.46-11.59a1.8,1.8,0,0,0-1.39-1.66,1.83,1.83,0,0,0-2,.85c-.9,1.55-1.55,1.64-3.13,1.87a15.24,15.24,0,0,0-2.47.52,8.57,8.57,0,0,0-5.74-6.44C71.64,61.73,63,64.92,62.64,65.05Z"/><path d="M78,91.85A1.82,1.82,0,0,0,79.79,90v-11c0-4.86-3.64-8.56-3.8-8.71a1.82,1.82,0,0,0-2.58,2.57s2.74,2.81,2.74,6.14V90A1.81,1.81,0,0,0,78,91.85Z"/></svg>